<?xml version="1.0" encoding="UTF-8"?>
<svg width="16px" height="16px" viewBox="0 0 16 16" version="1.1" xmlns="http://www.w3.org/2000/svg" xmlns:xlink="http://www.w3.org/1999/xlink">
    <!-- Generator: Sketch 47.1 (45422) - http://www.bohemiancoding.com/sketch -->
    <title>語音_點擊_送出@1x</title>
    <desc>Created with Sketch.</desc>
    <defs></defs>
    <g id="華航APP" stroke="none" stroke-width="1" fill="none" fill-rule="evenodd">
        <g id="00_語音_點擊" transform="translate(-331.000000, -566.000000)">
            <g id="Group" transform="translate(162.000000, 549.000000)">
                <g id="語音_點擊_送出" transform="translate(169.000000, 17.000000)">
                    <path d="M2.69669914,13.3033009 C5.62563133,16.232233 10.3743687,16.232233 13.3033009,13.3033009 C16.232233,10.3743687 16.232233,5.62563133 13.3033009,2.69669914 C10.3743687,-0.232233047 5.62563133,-0.232233047 2.69669914,2.69669914 C-0.232233047,5.62563133 -0.232233047,10.3743687 2.69669914,13.3033009 Z" id="Oval-2" stroke="#FFFFFF"></path>
                    <path d="M2.97888184,9.27142334 L2.97888184,9.97142339 L7.42332628,9.97142339 L8.53443739,9.97142339 L12.9788818,9.97142339 L12.9788818,8.77142334 L8.53443739,8.77142334 L7.42332628,8.77142334 L4.17888188,8.77142334 L4.17888188,7.54920112 L4.17888188,6.99364556 L4.17888188,4.77142334 L2.97888184,4.77142334 L2.97888184,6.99364556 L2.97888184,7.54920112 L2.97888184,9.27142334 Z" id="Combined-Shape" fill="#FFFFFF" transform="translate(7.978882, 7.371423) rotate(-45.000000) translate(-7.978882, -7.371423) "></path>
                </g>
            </g>
        </g>
    </g>
</svg>