<?xml version="1.0" encoding="UTF-8"?>
<svg width="18px" height="24px" viewBox="0 0 18 24" version="1.1" xmlns="http://www.w3.org/2000/svg" xmlns:xlink="http://www.w3.org/1999/xlink">
    <!-- Generator: Sketch 47.1 (45422) - http://www.bohemiancoding.com/sketch -->
    <title>語音_關@1x</title>
    <desc>Created with Sketch.</desc>
    <defs></defs>
    <g id="Symbols" stroke="none" stroke-width="1" fill="none" fill-rule="evenodd">
        <g id="M_輸入" transform="translate(-341.000000, -14.000000)" fill-rule="nonzero" fill="#9B9B9B">
            <g id="語音_關" transform="translate(341.000000, 14.000000)">
                <path d="M17.5135135,11.7319216 C17.5135135,16.1231325 13.977691,19.7369858 9.49200156,20.0962001 L9.49200156,22.5902109 L12.7674147,22.5902109 C13.17352,22.5902109 13.5027575,22.9057217 13.5027575,23.2951055 C13.5027575,23.6844892 13.17352,24 12.7674147,24 L4.74600078,24 C4.33989544,24 4.01065793,23.6844892 4.01065793,23.2951055 C4.01065793,22.9057217 4.33989544,22.5902109 4.74600078,22.5902109 L8.02141391,22.5902109 L8.02141391,20.0962001 C3.5357245,19.7369858 0,16.1231325 0,11.7319216 C0,11.3425378 0.329237504,11.027027 0.735342847,11.027027 C1.14144819,11.027027 1.47068569,11.3425378 1.47068569,11.7319216 C1.47068569,15.5829954 4.73923562,18.7162986 8.75675676,18.7162986 C12.7742779,18.7162986 16.0428278,15.5830893 16.0428278,11.7319216 C16.0428278,11.3425378 16.3720653,11.027027 16.7781707,11.027027 C17.184276,11.027027 17.5135135,11.3425378 17.5135135,11.7319216 Z M8.75670651,16.2162162 C6.0742546,16.2162162 3.89189189,14.1210684 3.89189189,11.5456017 L3.89189189,4.67061454 C3.89189189,2.09524428 6.0742546,1.77635684e-15 8.75670651,1.77635684e-15 C11.4392589,1.77635684e-15 13.6216216,2.09524428 13.6216216,4.67061454 L13.6216216,11.5456017 C13.6216216,14.1209719 11.4392589,16.2162162 8.75670651,16.2162162 Z M5.39939549,4.67061454 L5.39939549,11.5456017 C5.39939549,13.3229169 6.90549209,14.7688911 8.75670651,14.7688911 C10.6080214,14.7688911 12.114118,13.3229169 12.114118,11.5456017 L12.114118,4.67061454 C12.114118,2.89329934 10.6080214,1.44732509 8.75670651,1.44732509 C6.90549209,1.44732509 5.39939549,2.89329934 5.39939549,4.67061454 Z" id="Combined-Shape"></path>
            </g>
        </g>
    </g>
</svg>