<?xml version="1.0" encoding="UTF-8"?>
<svg width="120px" height="66px" viewBox="0 0 120 66" version="1.1" xmlns="http://www.w3.org/2000/svg" xmlns:xlink="http://www.w3.org/1999/xlink">
    <!-- Generator: Sketch 47.1 (45422) - http://www.bohemiancoding.com/sketch -->
    <title>背景_地球@1x</title>
    <desc>Created with Sketch.</desc>
    <defs>
        <rect id="path-1" x="0" y="0" width="120" height="66"></rect>
    </defs>
    <g id="Symbols" stroke="none" stroke-width="1" fill="none" fill-rule="evenodd">
        <g id="背景_地球">
            <mask id="mask-2" fill="white">
                <use xlink:href="#path-1"></use>
            </mask>
            <g id="Mask"></g>
            <g id="M_登記背景" opacity="0.15" mask="url(#mask-2)" fill="#FFFFFF">
                <path d="M47.0889445,15.4635273 C44.5036494,17.9472539 42.1281876,21.1785322 40.0440507,25.1043949 C38.9321324,27.1987419 37.9295319,29.4408242 37.0407923,31.806019 L23.2917355,31.806019 C29.2462907,24.0765473 37.5382594,18.2667743 47.0889445,15.4635273 L47.0889445,15.4635273 Z M40.0843705,85.5552948 C37.8787062,78.7128069 36.628508,70.9057455 36.4621178,62.726483 L57.9352587,62.726483 L57.9352587,85.5552948 L40.0843705,85.5552948 Z M13.5664257,62.726483 L31.5905188,62.726483 C31.7486747,70.827297 32.9256157,78.6097358 35.0094687,85.5552948 L20.6788979,85.5552948 C16.5026737,78.885451 13.9449209,71.088124 13.5664257,62.726483 L13.5664257,62.726483 Z M50.914216,36.1407304 L57.9352587,36.1407304 L57.9352587,58.3917716 L36.4740434,58.3917716 C36.6864323,50.4226596 37.9306677,42.8223129 40.0840865,36.1407304 L50.914216,36.1407304 Z M57.9355426,31.8063054 L50.914216,31.8063054 L41.6625221,31.8063054 C42.3275151,30.1806454 43.0512842,28.6242722 43.8341133,27.1503558 C47.7675668,19.7404043 52.7027689,15.2178746 57.9355426,14.141927 L57.9355426,31.8063054 Z M13.8333315,55.0977918 C13.8875645,54.6259553 13.9488961,54.1555504 14.0170422,53.686577 C14.0406095,53.5245264 14.0681519,53.3639073 14.0934227,53.2024292 C14.1453842,52.8691661 14.1987654,52.5364756 14.2578254,52.2049303 C14.3018364,51.9575597 14.3503906,51.7121933 14.3983768,51.4665405 C14.4443755,51.2291907 14.4903742,50.9921273 14.5400641,50.7559227 C14.6067905,50.4404107 14.6777761,50.1263302 14.7507493,49.813395 C14.7870939,49.6567842 14.8231546,49.5001734 14.8609189,49.3441353 C14.9526323,48.9684985 15.0483209,48.5945795 15.1488365,48.2223784 C15.170984,48.1404942 15.1931315,48.0586099 15.2155629,47.9767257 C15.3356706,47.5412504 15.4606052,47.1077792 15.5929223,46.6777438 C15.5937742,46.6748807 15.594626,46.6723039 15.5951939,46.6697272 C16.742321,42.941131 18.338361,39.4100877 20.3202787,36.1407304 L35.5818965,36.1407304 C33.5474495,42.9210894 32.3756194,50.4988176 32.1743043,58.3917716 L13.5692651,58.3917716 C13.6178193,57.3206913 13.7018662,56.2547646 13.821122,55.1957093 C13.8250972,55.1630702 13.8296403,55.130431 13.8333315,55.0977918 L13.8333315,55.0977918 Z M45.1368408,105.028857 C44.7884435,104.909466 44.441466,104.786067 44.096476,104.65866 C43.904247,104.587655 43.7128699,104.514647 43.5217767,104.441065 C43.1790583,104.309077 42.8380435,104.17394 42.4993003,104.034221 C42.3099107,103.956059 42.121373,103.875606 41.9331192,103.794867 C41.5977833,103.65114 41.2635831,103.50455 40.9322224,103.353093 C40.7442525,103.2672 40.5577024,103.179017 40.3711523,103.090548 C40.0443346,102.936228 39.7189367,102.779331 39.3966621,102.617566 C39.2095441,102.523371 39.0235618,102.426598 38.8378635,102.329826 C38.5206999,102.165485 38.2046721,101.99914 37.8920515,101.827355 C37.7052175,101.724856 37.520371,101.618636 37.3349566,101.513561 C37.0282989,101.339771 36.722493,101.164837 36.4203783,100.984462 C36.2332603,100.872516 36.0486977,100.757133 35.8629994,100.64261 C35.5679833,100.460804 35.2732512,100.277853 34.9822102,100.089462 C34.7948083,99.9677807 34.6099618,99.8420912 34.4242635,99.7181196 C34.140889,99.5288697 33.8577985,99.3393334 33.5786832,99.1437847 C33.3904294,99.0117965 33.2055829,98.8755136 33.0196007,98.7412349 C32.7487197,98.5451135 32.4775547,98.3498511 32.2109328,98.1482899 C32.0221112,98.0054219 31.8366968,97.857973 31.6498627,97.712242 C31.392327,97.5112534 31.1336555,97.3111237 30.8803789,97.1046952 C30.6904215,96.9500886 30.5050071,96.7903285 30.3176052,96.6328588 C30.0731308,96.4275755 29.8275207,96.2234375 29.5870215,96.0127144 C29.3967801,95.8460829 29.2113657,95.6740114 29.0233959,95.5042305 C28.7928347,95.2955115 28.5605699,95.0885105 28.3339839,94.8752106 C28.1426067,94.6951225 27.9566245,94.5093083 27.7686546,94.3260708 C27.5520066,94.1150614 27.333087,93.9066288 27.1206982,93.6916111 C26.9290371,93.4977802 26.7433388,93.2976505 26.554801,93.1006702 C26.3526341,92.8888019 26.1479116,92.6797967 25.9494359,92.4644926 C25.7555033,92.2534832 25.5683853,92.0361751 25.3781439,91.82173 C25.1924456,91.6124384 25.0036239,91.4062963 24.8216169,91.193569 C24.6154747,90.9527835 24.417283,90.7051266 24.2159678,90.4603328 C24.0595156,90.2699376 23.8990882,90.0826919 23.7457593,89.8900062 L36.4680806,89.8900062 C37.3568202,92.2549148 38.3594207,94.496997 39.4713389,96.5916303 C41.2581882,99.9571873 43.2594139,102.812542 45.4230547,105.12477 C45.3276501,105.092704 45.2319615,105.061496 45.1368408,105.028857 L45.1368408,105.028857 Z M57.406558,107.434135 C52.3711242,106.170083 47.6346818,101.705674 43.8341133,94.5459558 C43.0512842,93.0717531 42.3275151,91.5153798 41.6625221,89.8900062 L57.9352587,89.8900062 L57.9352587,107.465343 C57.7583626,107.457326 57.5828862,107.444156 57.406558,107.434135 L57.406558,107.434135 Z M96.8779532,31.806019 L83.1291803,31.806019 C82.2404407,29.4408242 81.2375563,27.1987419 80.125638,25.1043949 C78.0415011,21.1785322 75.6660393,17.9472539 73.0810281,15.4635273 C82.6314293,18.2667743 90.9236819,24.0765473 96.8779532,31.806019 L96.8779532,31.806019 Z M85.1602199,85.5552948 C87.2440729,78.6097358 88.4212979,70.827297 88.5797378,62.726483 L106.603263,62.726483 C106.224768,71.088124 103.667015,78.885451 99.4907908,85.5552948 L85.1602199,85.5552948 Z M62.2347139,107.465343 L62.2347139,89.8900062 L78.5074505,89.8900062 C77.8421735,91.5153798 77.1184045,93.0717531 76.3358593,94.5459558 C72.5350069,101.705674 67.7988484,106.170083 62.7634146,107.434135 C62.5870864,107.444156 62.411326,107.457326 62.2347139,107.465343 L62.2347139,107.465343 Z M62.2347139,62.726483 L83.7075708,62.726483 C83.5411806,70.9057455 82.2912664,78.7128069 80.0856021,85.5552948 L62.2347139,85.5552948 L62.2347139,62.726483 Z M84.5877922,36.1407304 L99.8496939,36.1407304 C101.831328,39.4098014 103.427652,42.9408447 104.574495,46.6691545 C104.575347,46.6720176 104.576198,46.675167 104.57705,46.6780301 C104.709367,47.1080655 104.834302,47.5415367 104.954126,47.9767257 C104.976841,48.0586099 104.998989,48.1404942 105.020852,48.2226647 C105.121368,48.5945795 105.217056,48.9682122 105.30877,49.3435627 C105.346534,49.5001734 105.382879,49.6567842 105.419223,49.8136813 C105.492196,50.1269028 105.563182,50.4409833 105.629625,50.7564953 C105.679315,50.991841 105.725029,51.2283318 105.771028,51.4645364 C105.819298,51.711048 105.867852,51.9575597 105.912147,52.2055029 C105.971207,52.5359029 106.024304,52.8677345 106.075982,53.1998525 C106.101537,53.3624757 106.129079,53.52424 106.15293,53.6871496 C106.220793,54.1546915 106.28184,54.6236649 106.336073,55.0940698 C106.339764,55.1281405 106.344875,55.1619249 106.348851,55.1962819 C106.468106,56.2553373 106.552153,57.3209777 106.600424,58.3917716 L87.9956683,58.3917716 C87.7943532,50.4988176 86.6222392,42.9210894 84.5877922,36.1407304 L84.5877922,36.1407304 Z M69.2554727,36.1407304 L80.0858861,36.1407304 C82.2393049,42.8223129 83.4832564,50.4226596 83.6956453,58.3917716 L62.2347139,58.3917716 L62.2347139,36.1407304 L69.2554727,36.1407304 Z M62.23443,14.141927 C67.4669197,15.2178746 72.4021219,19.7404043 76.3358593,27.1503558 C77.1184045,28.6242722 77.8421735,30.1806454 78.5074505,31.8063054 L69.2554727,31.8063054 L62.23443,31.8063054 L62.23443,14.141927 Z M95.3483557,91.1932827 C95.164929,91.4080141 94.9738358,91.6161604 94.7864338,91.8274561 C94.59818,92.0398971 94.4124817,92.2549148 94.2205367,92.46392 C94.021777,92.680083 93.8162028,92.8896608 93.6134679,93.1018155 C93.425782,93.2987957 93.2406516,93.4980665 93.0492744,93.6916111 C92.8363177,93.9072014 92.6171142,94.1159203 92.4001822,94.327216 C92.2122124,94.5098809 92.027082,94.6954088 91.8362727,94.8749243 C91.6094027,95.0885105 91.37657,95.2957978 91.1457249,95.5048031 C90.958039,95.6742977 90.7729086,95.8460829 90.5826672,96.0127144 C90.3424519,96.2234375 90.0965579,96.4275755 89.8520835,96.6328588 C89.6649655,96.7903285 89.4792672,96.9500886 89.2895937,97.1046952 C89.0363171,97.3108374 88.7782135,97.5106808 88.5206778,97.7116693 C88.3332758,97.8576867 88.1478614,98.0054219 87.9584719,98.1485762 C87.6924179,98.3498511 87.421253,98.5451135 87.1506559,98.7406623 C86.9646736,98.8752273 86.7795432,99.0117965 86.5912894,99.1437847 C86.3118902,99.3393334 86.0285157,99.529156 85.7448573,99.7186923 C85.5597268,99.8423775 85.3751643,99.9677807 85.1877624,100.089176 C84.8967214,100.277853 84.6017053,100.460804 84.3064053,100.642896 C84.1209909,100.757133 83.9364284,100.872516 83.7495943,100.984462 C83.4471957,101.164837 83.1416737,101.339771 82.8352999,101.513274 C82.6498856,101.618636 82.4644712,101.724856 82.2773532,101.827355 C81.9650166,101.99914 81.6487048,102.165485 81.3318251,102.330112 C81.1461268,102.426598 80.9607125,102.523371 80.7733105,102.61728 C80.4510359,102.779331 80.125354,102.936228 79.7985364,103.090834 C79.6119863,103.179304 79.4254361,103.2672 79.2377502,103.353093 C78.9061056,103.50455 78.5721893,103.65114 78.2368534,103.794867 C78.0485996,103.875606 77.8600619,103.956059 77.6706723,104.034221 C77.3316452,104.17394 76.9909143,104.309077 76.6481959,104.441065 C76.4571027,104.514647 76.2654416,104.587655 76.0732126,104.65866 C75.7285066,104.786067 75.3815291,104.909466 75.0331318,105.028857 C74.9380111,105.061496 74.8423225,105.092704 74.7469179,105.12477 C76.9105587,102.812542 78.9117844,99.9571873 80.6983497,96.5916303 C81.810268,94.496997 82.8131524,92.2549148 83.701892,89.8900062 L96.4239294,89.8900062 C96.2657735,90.089277 96.1002351,90.2822489 95.9386719,90.4783703 C95.7424677,90.7171516 95.549103,90.9585097 95.3483557,91.1932827 L95.3483557,91.1932827 Z M100.087922,92.2045245 C100.103254,92.1847692 100.118587,92.1655865 100.13392,92.1461175 C100.706632,91.4091593 101.261455,90.6578857 101.794415,89.8900062 L101.926448,89.8900062 L101.926448,89.6953164 C102.630909,88.6700455 103.298174,87.6175753 103.92881,86.5401962 C103.942155,86.5172915 103.9555,86.4943869 103.96913,86.4714822 C104.58926,85.4072733 105.173045,84.3190145 105.717931,83.2075648 C105.726449,83.1900999 105.734967,83.1729214 105.743769,83.1551703 C105.867568,82.9017872 105.988812,82.6472589 106.108635,82.3915854 C106.13419,82.3371868 106.159745,82.2822155 106.185016,82.2275306 C106.301148,81.9775833 106.415861,81.7270633 106.527734,81.4748254 C106.545623,81.4350286 106.562943,81.3949454 106.580264,81.3548622 C106.928377,80.5675137 107.256614,79.7698581 107.565544,78.962468 C107.59337,78.8897456 107.621764,78.8173095 107.649307,78.7443009 C107.734489,78.5178308 107.817684,78.2905018 107.900028,78.0628865 C107.938644,77.9563797 107.976976,77.8495867 108.01474,77.7427936 C108.092257,77.5231949 108.168921,77.3035963 108.243598,77.0828524 C108.281646,76.9706194 108.318275,76.8575275 108.355755,76.7450083 C108.592279,76.0292369 108.813754,75.3065942 109.019612,74.57708 C109.061636,74.4281995 109.104227,74.2796054 109.144831,74.1301523 C109.196792,73.9400435 109.246482,73.749362 109.295888,73.5586805 C109.339048,73.3937668 109.381071,73.228853 109.422527,73.063653 C109.468241,72.8801292 109.513672,72.6957465 109.557399,72.5110775 C109.600842,72.3292716 109.642014,72.1463204 109.68347,71.9636556 C109.722086,71.7930157 109.761554,71.6223758 109.798466,71.4505907 C109.864625,71.1430953 109.927944,70.8344547 109.988992,70.5249551 C110.019373,70.3683444 110.048052,70.2108747 110.077298,70.0536913 C110.121309,69.8189183 110.164468,69.5841453 110.205356,69.3479407 C110.231478,69.1939067 110.256465,69.0390138 110.281736,68.8841209 C110.316945,68.6668127 110.351302,68.4489319 110.384239,68.2304785 C110.407239,68.0764445 110.42967,67.9224105 110.45125,67.7680902 C110.484187,67.5333172 110.514569,67.2973989 110.544667,67.0614807 C110.561703,66.9269157 110.579592,66.7926369 110.595493,66.6574993 C110.638368,66.2936012 110.678404,65.9282714 110.713896,65.5620828 C110.719291,65.5033896 110.723834,65.44441 110.728945,65.3857168 C110.758759,65.067628 110.785734,64.7486802 110.809585,64.4291599 C110.818955,64.3008937 110.826906,64.1720548 110.835424,64.0437886 C110.85246,63.7884014 110.868361,63.5327279 110.881422,63.2764817 C110.888521,63.1390536 110.895052,63.0019118 110.901298,62.8641974 C110.91294,62.6013662 110.922026,62.337676 110.929693,62.0736995 C110.933384,61.9523047 110.937643,61.8309099 110.940199,61.7092287 C110.948717,61.3267205 110.954112,60.9436397 110.954112,60.5591273 C110.953828,60.1645941 110.948149,59.7709199 110.939347,59.3778182 C110.936791,59.2641538 110.9331,59.1507756 110.929693,59.0371111 C110.92089,58.7316199 110.909533,58.426415 110.895052,58.1214964 C110.890793,58.025583 110.887101,57.9293833 110.88199,57.8337563 C110.861546,57.4392231 110.836844,57.0452625 110.807597,56.6521609 C110.803906,56.6040611 110.799363,56.5559612 110.795672,56.5078614 C110.768129,56.1525525 110.736612,55.7975299 110.701687,55.4433662 C110.693737,55.3637724 110.685786,55.2841787 110.677552,55.2042986 C109.820898,46.8856038 106.973808,38.9348155 102.31261,31.9523227 L102.295857,31.9637751 C95.0749192,21.1610673 83.8858866,13.2704038 70.8543521,10.4267874 L70.8557718,10.4210612 C70.7311211,10.3938619 70.6061865,10.3709572 70.4815358,10.3449031 C70.3412682,10.3154133 70.2007168,10.2873551 70.0601653,10.2590106 C69.7884325,10.2043256 69.5166996,10.1510722 69.243831,10.1009682 C69.0646634,10.0680428 68.8846439,10.0374077 68.7049084,10.0062001 C68.4669647,9.96525799 68.2284532,9.92402956 67.9893737,9.88652314 C67.7667629,9.85130719 67.5433002,9.81952694 67.3195537,9.78717408 C67.1176706,9.75825691 66.9155037,9.72790821 66.7127688,9.70156782 C66.4489864,9.66663818 66.1837842,9.63600316 65.9185821,9.60565446 C65.7507721,9.58618548 65.5832461,9.56499864 65.4151523,9.54724751 C65.1167288,9.51575357 64.8166018,9.48941319 64.5161908,9.4630728 C64.3767751,9.45104784 64.2379272,9.43644611 64.0985115,9.42556638 C63.7748173,9.39979861 63.4499872,9.37975702 63.1245893,9.36028803 C63.0050495,9.35313032 62.8857937,9.34368214 62.766254,9.33738335 C62.4232516,9.31934591 62.0785456,9.30703465 61.7341235,9.29586861 C61.6310524,9.29271922 61.5285493,9.28670674 61.4257621,9.28412996 C60.9799726,9.27239131 60.5333313,9.26609252 60.0849863,9.26609252 L60.0849863,9.26609252 C59.6366413,9.26609252 59.189716,9.27239131 58.7442105,9.28412996 C58.6414233,9.28670674 58.5386362,9.29271922 58.4358491,9.29586861 C58.0911431,9.30703465 57.746721,9.31934591 57.4034347,9.33738335 C57.2838949,9.34368214 57.1646391,9.35313032 57.0450994,9.36028803 C56.7197015,9.37975702 56.3948714,9.39979861 56.0714611,9.42556638 C55.9320454,9.43644611 55.7926297,9.45104784 55.6534979,9.4630728 C55.3530869,9.48941319 55.0532438,9.51575357 54.7545364,9.54724751 C54.5864425,9.56499864 54.4189165,9.58618548 54.2511066,9.60565446 C53.9861884,9.63600316 53.7209862,9.66663818 53.4569198,9.70156782 C53.254185,9.72790821 53.052018,9.75825691 52.8498511,9.78717408 C52.6263884,9.81952694 52.4032097,9.85102088 52.1808829,9.88652314 C51.9415195,9.92402956 51.7030079,9.96525799 51.4647802,10.0062001 C51.2850447,10.0374077 51.1053092,10.0680428 50.9261416,10.1009682 C50.653273,10.1510722 50.3812562,10.2043256 50.1095234,10.2590106 C49.9692558,10.2873551 49.8284204,10.3154133 49.6884368,10.3449031 C49.5637861,10.3709572 49.4385676,10.3938619 49.3142008,10.4210612 L49.3156205,10.4267874 C36.283802,13.2704038 25.0950534,21.1610673 17.8738313,31.9637751 L17.8570787,31.9523227 C13.1961649,38.9348155 10.3487909,46.8858901 9.49213681,55.2048712 C9.48418643,55.2841787 9.47623604,55.3631998 9.46828566,55.4425073 C9.43336075,55.7972436 9.4015592,56.1525525 9.37401679,56.5087203 C9.37032554,56.5565338 9.36578247,56.6043474 9.36209121,56.6521609 C9.33284515,57.0452625 9.30814217,57.4392231 9.28769832,57.8337563 C9.2828713,57.9293833 9.27918005,58.025583 9.27463697,58.1214964 C9.26043985,58.426415 9.24879821,58.7319062 9.239996,59.03797 C9.23658869,59.1507756 9.23318138,59.2635811 9.2306259,59.3769593 C9.22182369,59.7703473 9.2158609,60.1643078 9.2158609,60.5591273 C9.2158609,60.9436397 9.2212558,61.3267205 9.22949013,61.7092287 C9.23204561,61.8309099 9.23658869,61.9523047 9.239996,62.0736995 C9.24766244,62.337676 9.25703254,62.6013662 9.26839024,62.8641974 C9.27463697,63.0019118 9.28116764,63.1390536 9.28855014,63.2764817 C9.30161149,63.5327279 9.31722832,63.7884014 9.33454881,64.0437886 C9.34306708,64.1720548 9.35073352,64.3008937 9.36038756,64.4291599 C9.38423872,64.7503981 9.41149718,65.0707774 9.44131113,65.390584 C9.44642209,65.4475594 9.45039729,65.5045348 9.45579219,65.5612239 C9.49128499,65.9279851 9.5316048,66.2938875 9.5744801,66.6583582 C9.59038087,66.7926369 9.60826924,66.926343 9.62502184,67.0600491 C9.65483579,67.2968263 9.6857855,67.5330308 9.71872282,67.7683765 C9.74030244,67.9224105 9.76273388,68.0758718 9.78573321,68.2293332 C9.81838658,68.4486456 9.85274361,68.6673853 9.88823641,68.8852661 C9.91350728,69.0395864 9.93821026,69.194193 9.9646169,69.3479407 C10.0055046,69.5850042 10.0489478,69.8209224 10.0929588,70.0568407 C10.1210691,70.2080116 10.1486115,70.3600414 10.1781416,70.510926 C10.239757,70.8252928 10.303928,71.1385144 10.3712224,71.4505907 C10.4081349,71.6223758 10.4478868,71.7930157 10.486219,71.9636556 C10.5276746,72.1466067 10.5691302,72.3292716 10.6125734,72.5110775 C10.6563005,72.6954602 10.7014473,72.8792703 10.747162,73.0625078 C10.7886176,73.2285667 10.830925,73.3943394 10.8740843,73.5598257 C10.9234902,73.7502209 10.9731802,73.9406161 11.0248577,74.129866 C11.0654614,74.2793191 11.1083367,74.4281995 11.1503602,74.57708 C11.2903438,75.073539 11.4360062,75.5674212 11.5901869,76.0572952 C11.5924584,76.0641666 11.594446,76.0704654 11.5964336,76.0773368 C11.6665674,76.2997985 11.7401085,76.5205424 11.8130817,76.7418589 C11.850846,76.8558097 11.8880424,76.9703331 11.9266586,77.0839976 C12.0010515,77.3038826 12.077432,77.5226223 12.1546643,77.7410757 C12.1927126,77.849014 12.2313287,77.9569524 12.2705128,78.0646044 C12.3522882,78.2913607 12.4351994,78.5178308 12.5200981,78.7431556 C12.5482084,78.8173095 12.5771705,78.8911771 12.6055648,78.9650447 C12.9142101,79.7721485 13.2424475,80.5695178 13.5899929,81.3562937 C13.6073134,81.3958043 13.62435,81.4353149 13.6419544,81.4745391 C13.7538277,81.7264907 13.8682564,81.9767243 13.9841049,82.2260991 C14.0099437,82.2816429 14.0357824,82.3377594 14.0619051,82.3933033 C14.1811609,82.6481179 14.3021204,82.9015009 14.4256353,83.1540251 C14.4347215,83.1729214 14.4440916,83.1915315 14.4531777,83.2104278 C14.9977792,84.3207324 15.5812807,85.4084185 16.2014108,86.4720548 C16.2144722,86.4946732 16.2275335,86.5170052 16.2405949,86.5396236 C16.8712308,87.617289 17.5387793,88.6697592 18.2432403,89.6953164 L18.2432403,89.8900062 L18.3755575,89.8900062 C18.9082333,90.6578857 19.4633406,91.4091593 20.0357684,92.1458312 C20.0513853,92.1655865 20.0670021,92.1850555 20.082335,92.2050971 C20.3503766,92.5489537 20.6229612,92.8890882 20.8995211,93.2257871 C20.9216686,93.2529864 20.9438161,93.2798994 20.9662475,93.3068124 C22.1417689,94.7323426 23.392251,96.0925945 24.7117312,97.3815556 C24.7449524,97.4139085 24.7781737,97.445975 24.811395,97.4783279 C25.1101023,97.7683584 25.412217,98.0549533 25.717739,98.3378261 C25.7506763,98.3684612 25.7833296,98.3988099 25.8165509,98.4294449 C26.8347682,99.366819 27.890182,100.263537 28.9816564,101.116451 C29.0021002,101.132484 29.023112,101.148231 29.0435558,101.16455 C29.3766202,101.42366 29.7130919,101.678761 30.052403,101.929853 C30.1032287,101.96736 30.1543383,102.004866 30.2054479,102.042372 C30.5314138,102.281726 30.860219,102.517358 31.1918637,102.749268 C31.2333193,102.777899 31.274207,102.807103 31.3156626,102.835733 C32.4468889,103.621078 33.6110526,104.361185 34.8055981,105.053766 C34.8498931,105.079247 34.8941881,105.104442 34.9384831,105.129924 C35.2863125,105.330053 35.6364134,105.526175 35.9890699,105.718288 C36.0529569,105.752931 36.1168439,105.787574 36.1810149,105.822218 C36.5362268,106.013758 36.8939941,106.201004 37.2540331,106.384241 C37.2977602,106.406574 37.3409194,106.429192 37.3849305,106.451238 C38.6166724,107.073386 39.8770926,107.646003 41.1630675,108.167657 C41.2241151,108.19228 41.2854467,108.21633 41.3464943,108.240666 C41.712212,108.387542 42.0799174,108.529838 42.4496103,108.668125 C42.520028,108.694179 42.5901618,108.720806 42.6608635,108.74686 C43.0515681,108.890873 43.4445444,109.030591 43.8397921,109.165156 C43.8752849,109.177181 43.9104938,109.189779 43.9457026,109.201804 C44.8384174,109.503859 45.741922,109.781292 46.6559324,110.033817 C46.6735369,110.03897 46.6914252,110.043265 46.7090297,110.048132 C47.1304001,110.164087 47.55461,110.274316 47.9808075,110.379391 C48.0517931,110.397142 48.1230626,110.413748 48.1940482,110.431213 C48.5804938,110.524836 48.968643,110.613878 49.3584958,110.698625 C49.4300493,110.714086 49.5010349,110.730119 49.5725884,110.745007 C50.0053165,110.837198 50.4394644,110.924236 50.8758838,111.005261 C50.8926364,111.008124 50.909389,111.01156 50.9264255,111.01471 C51.8691142,111.188213 52.8208889,111.335375 53.7808981,111.455338 C53.8215018,111.460492 53.8626735,111.464787 53.9035612,111.46994 C54.3263513,111.521762 54.7505612,111.568144 55.1764747,111.609372 C55.2562625,111.617103 55.3360504,111.624547 55.4158382,111.631705 C55.5984131,111.648883 55.7801362,111.668066 55.963279,111.682954 C57.2219955,111.984437 58.5020077,112.140761 59.7982045,112.140761 C59.894177,112.140761 59.9892977,112.134749 60.0849863,112.133031 C60.1806749,112.134749 60.2757956,112.140761 60.3717681,112.140761 C61.667681,112.140761 62.9476932,111.984437 64.2066936,111.682954 C64.3895525,111.668066 64.5715595,111.648883 64.7538505,111.631705 C64.8339223,111.624547 64.9137101,111.617103 64.9932139,111.609372 C65.4191275,111.568144 65.8436213,111.521762 66.2666954,111.46994 C66.3072992,111.464787 66.3481869,111.460492 66.3887906,111.455338 C67.3490837,111.335375 68.3008585,111.188213 69.2435471,111.01471 C69.2602997,111.01156 69.2770523,111.008124 69.2940888,111.005261 C69.7305082,110.924236 70.1646561,110.837198 70.5971003,110.745007 C70.6686538,110.730119 70.7399233,110.714086 70.8111928,110.698625 C71.2010457,110.613878 71.5894789,110.524836 71.9759244,110.431213 C72.04691,110.413748 72.1181795,110.397142 72.1891651,110.379391 C72.6150787,110.274316 73.0392885,110.164087 73.4609429,110.048132 C73.4785474,110.043265 73.4961518,110.03897 73.5140402,110.033817 C74.4277667,109.781579 75.3312713,109.503859 76.223986,109.201804 C76.2594788,109.189779 76.2946877,109.177181 76.3301805,109.165156 C76.7251443,109.030591 77.1181205,108.890873 77.5091091,108.74686 C77.5795269,108.720806 77.6496606,108.694465 77.7197944,108.668411 C78.0897713,108.529838 78.4577606,108.387256 78.8234783,108.240666 C78.8845259,108.216044 78.9458575,108.19228 79.0066211,108.167657 C80.29288,107.646003 81.5530162,107.073386 82.7850421,106.451238 C82.8287692,106.429192 82.8722124,106.406574 82.9156556,106.384241 C83.2759785,106.201004 83.6337458,106.013758 83.9889577,105.822218 L84.1809028,105.718288 C84.5335592,105.526175 84.8836601,105.330053 85.2312055,105.129924 C85.2755005,105.104442 85.3200795,105.079247 85.3643745,105.053766 C86.55892,104.361185 87.7230837,103.621078 88.8540261,102.835733 C88.8954817,102.807103 88.9363694,102.777899 88.977541,102.749268 C89.3097536,102.517358 89.6385588,102.281726 89.9648086,102.042086 C90.0156343,102.004866 90.06646,101.967646 90.1172856,101.929853 C90.4565968,101.678761 90.7930685,101.423946 91.1261328,101.16455 C91.1468606,101.148231 91.1678724,101.132484 91.1883162,101.116451 C92.2797907,100.263537 93.3354883,99.366819 94.3534217,98.4291586 C94.386643,98.3988099 94.4190124,98.3684612 94.4516658,98.3381124 C94.7574717,98.0552396 95.0595863,97.7683584 95.3585776,97.4783279 C95.3917989,97.445975 95.4250202,97.4139085 95.4579575,97.3815556 C96.7780055,96.0923082 98.0284876,94.73177 99.204293,93.3062398 C99.2261565,93.2798994 99.2480201,93.2532727 99.2695997,93.226646 C99.5467274,92.8893745 99.8193121,92.5489537 100.087922,92.2045245 L100.087922,92.2045245 Z" id="Fill-122"></path>
                <path d="M8.88425049,36.3002841 L5.66655969,34.7753526 C6.18460274,33.6645679 6.74327202,32.5554407 7.32753816,31.4789906 L10.4461292,33.1999847 C9.89685323,34.2127382 9.3712955,35.255564 8.88425049,36.3002841" id="Fill-1"></path>
                <path d="M116.061863,66.511782 L119.597519,66.8887526 C119.469299,68.109645 119.302333,69.3409562 119.10108,70.5490618 L115.595014,69.955191 C115.78429,68.8185961 115.941393,67.6604532 116.061863,66.511782" id="Fill-3"></path>
                <path d="M114.038935,76.7208432 C114.365354,75.6152679 114.661714,74.4853031 114.920031,73.3619685 L118.383358,74.1717924 C118.108838,75.366401 117.793456,76.5678765 117.446607,77.7435419 L114.038935,76.7208432 Z" id="Fill-5"></path>
                <path d="M6.34008611,42.7641705 L2.96082975,41.6493603 C3.33985127,40.481509 3.75996869,39.3108162 4.20897065,38.1697223 L7.51331507,39.4924346 C7.09108415,40.5650961 6.6965636,41.6659356 6.34008611,42.7641705" id="Fill-7"></path>
                <path d="M4.3805636,70.2160395 L0.877315068,70.8262489 C0.670661448,69.6190904 0.498058708,68.3892 0.364438356,67.170202 L3.89821526,66.7768928 C4.02385127,67.9236697 4.18612133,69.0806286 4.3805636,70.2160395" id="Fill-9"></path>
                <path d="M11.5255656,89.6328693 L8.47484149,91.4736795 C7.85112329,90.4225659 7.25135812,89.3385386 6.69268885,88.2519065 L9.84908806,86.6021863 C10.3748806,87.6244114 10.9389511,88.6440317 11.5255656,89.6328693" id="Fill-11"></path>
                <path d="M8.36092368,83.47539 L5.1098865,84.9266796 C4.61884932,83.8080808 4.1555225,82.6591728 3.73258708,81.5112119 L7.06558121,80.2630886 C7.46338943,81.342617 7.89900587,82.4233294 8.36092368,83.47539" id="Fill-13"></path>
                <path d="M5.96648924,76.9717229 L2.56374951,78.0107601 C2.21173386,76.8376994 1.89095108,75.6376446 1.61079452,74.44422 L5.07059883,73.6187679 C5.33384736,74.7406818 5.63537378,75.8687523 5.96648924,76.9717229" id="Fill-15"></path>
                <path d="M15.4140822,95.3604552 L12.60782,97.5614239 C11.8615186,96.5936607 11.1351781,95.5910892 10.4494638,94.5809405 L13.3834755,92.5559072 C14.0283288,93.5061479 14.7116947,94.4495217 15.4140822,95.3604552" id="Fill-17"></path>
                <path d="M3.69945205,56.3660859 L0.152994129,56.111536 C0.239412916,54.8887493 0.364109589,53.6529391 0.523796477,52.4386769 L4.04818004,52.9098902 C3.89812133,54.0524049 3.7807045,55.2152836 3.69945205,56.3660859" id="Fill-19"></path>
                <path d="M3.55533464,60.4657601 C3.55533464,61.4126857 3.578818,62.3709773 3.62461057,63.3138775 L0.073925636,63.4900497 C0.0248454012,62.488899 -4.69667328e-05,61.471173 -4.69667328e-05,60.4657601 C-4.69667328e-05,60.2434137 0.00112720156,60.0210673 0.00347553816,59.7991945 L3.55862231,59.8380282 C3.55650881,60.0471143 3.55533464,60.2564372 3.55533464,60.4657601" id="Fill-21"></path>
                <path d="M4.60576908,49.4827487 L1.11661057,48.7943984 C1.35003523,47.5900814 1.62385127,46.3786607 1.9296047,45.1935237 L5.37038748,46.0961695 C5.08295108,47.2105061 4.82557339,48.3501793 4.60576908,49.4827487" id="Fill-24"></path>
                <path d="M63.9959765,120.795579 C62.782591,120.877745 61.5513581,120.922972 60.3356243,120.930313 L60.3137847,117.34554 C61.4576595,117.338436 62.6163288,117.295814 63.75809,117.21862 L63.9959765,120.795579 Z" id="Fill-26"></path>
                <path d="M43.3346301,114.834636 L42.2877417,118.260522 C41.1232016,117.898706 39.9551389,117.495688 38.8154912,117.062362 L40.0699726,113.708223 C41.1415186,114.115503 42.2398356,114.494368 43.3346301,114.834636" id="Fill-28"></path>
                <path d="M56.8681879,117.262213 L56.6763288,120.84225 C55.4603601,120.775712 54.2328845,120.671287 53.0277182,120.531107 L53.4351546,116.969777 C54.5686967,117.101432 55.7238434,117.199937 56.8681879,117.262213" id="Fill-30"></path>
                <path d="M50.026591,116.466975 L49.4047515,119.996576 C48.2087436,119.782517 47.002638,119.527494 45.8200157,119.23932 L46.6555538,115.754709 C47.767726,116.025834 48.9019726,116.26523 50.026591,116.466975" id="Fill-32"></path>
                <path d="M25.1110685,105.19283 L22.9125558,108.009928 C21.9570176,107.252198 21.0122818,106.45445 20.1039452,105.638943 L22.4682505,102.961552 C23.323045,103.728754 24.2121252,104.479617 25.1110685,105.19283" id="Fill-34"></path>
                <path d="M30.7767593,109.149814 L28.9347241,112.215779 C27.8951155,111.580943 26.8604384,110.904196 25.8595773,110.20519 L27.8840783,107.258331 C28.8255264,107.916135 29.7989119,108.552391 30.7767593,109.149814" id="Fill-36"></path>
                <path d="M19.965135,100.573093 L17.4441957,103.100595 C16.5875225,102.231811 15.7456438,101.324903 14.9425127,100.405208 L17.6109276,98.036118 C18.3668571,98.9015877 19.1587162,99.7552178 19.965135,100.573093" id="Fill-38"></path>
                <path d="M36.8808376,112.381414 L35.4243992,115.651966 C34.3141057,115.149259 33.2045166,114.604878 32.1266301,114.033976 L33.7796243,110.860271 C34.7934012,111.396839 35.8367671,111.90878 36.8808376,112.381414" id="Fill-40"></path>
                <path d="M96.3195382,16.9700487 L98.6122192,14.2299078 C99.5416908,15.0205517 100.458716,15.8502659 101.338403,16.6958452 L98.8850959,19.2903599 C98.0573072,18.4945067 97.1942935,17.7140448 96.3195382,16.9700487" id="Fill-42"></path>
                <path d="M105.678035,27.1285789 L108.557096,25.0251679 C109.269816,26.0170838 109.961401,27.0442814 110.613065,28.0778724 L107.61236,30.0008489 C106.999444,29.0281131 106.348485,28.0617706 105.678035,27.1285789" id="Fill-44"></path>
                <path d="M101.30609,21.7635667 L103.9111,19.3236763 C104.738654,20.2220599 105.549299,21.1573828 106.320258,22.1038348 L103.572939,24.3791558 C102.847538,23.4890599 102.085033,22.6089092 101.30609,21.7635667" id="Fill-46"></path>
                <path d="M78.4370959,6.70354207 L79.6004618,3.31601566 C80.7511468,3.71808611 81.9046497,4.16135812 83.0290333,4.63399217 L81.6608924,7.94290411 C80.6034364,7.49844814 79.5189746,7.08169667 78.4370959,6.70354207" id="Fill-48"></path>
                <path d="M84.80191,9.37982055 L86.3694247,6.16207299 C87.461636,6.70290274 88.5517339,7.28517084 89.6091898,7.89301233 L87.8491115,11.007756 C86.8543562,10.4361434 85.8293072,9.88844677 84.80191,9.37982055" id="Fill-50"></path>
                <path d="M90.7917886,12.8204354 L92.7371507,9.81982485 C93.7539804,10.4901791 94.7649393,11.2017348 95.7416125,11.9348386 L93.6187162,14.8104237 C92.6993425,14.1206526 91.7482661,13.4510088 90.7917886,12.8204354" id="Fill-52"></path>
                <path d="M119.87171,63.2057352 L116.320086,63.0456648 C116.357894,62.1903771 116.377151,61.3225395 116.377151,60.4660679 C116.377151,60.1665278 116.374802,59.8674613 116.370341,59.5693419 L119.925252,59.5136961 C119.929949,59.8305219 119.932532,60.1478213 119.932532,60.4663047 C119.932297,61.3755806 119.911867,62.2971697 119.87171,63.2057352" id="Fill-54"></path>
                <path d="M115.848117,52.6430035 L119.370153,52.1545045 C119.535476,53.3675828 119.666278,54.6026826 119.758098,55.8257061 L116.213049,56.0968313 C116.12663,54.9465025 116.003812,53.7843342 115.848117,52.6430035" id="Fill-57"></path>
                <path d="M112.321949,39.2478063 L115.620423,37.9094658 C116.074356,39.0474814 116.49917,40.2143855 116.882419,41.3770274 L113.508798,42.5077025 C113.148329,41.4146771 112.748877,40.317863 112.321949,39.2478063" id="Fill-59"></path>
                <path d="M109.369315,32.9856892 L112.480626,31.2509613 C113.068885,32.3233859 113.631076,33.4275405 114.151937,34.5324055 L110.940587,36.0713076 C110.450724,35.0325072 109.922114,33.9941804 109.369315,32.9856892" id="Fill-61"></path>
                <path d="M114.49416,45.8359603 L117.930481,44.9162656 C118.242106,46.1006922 118.521558,47.310929 118.760618,48.5133517 L115.274748,49.2182773 C115.049777,48.0876022 114.787233,46.9493497 114.49416,45.8359603" id="Fill-63"></path>
                <path d="M12.1932681,30.2025945 L9.18481409,28.2926415 C9.83225049,27.2554986 10.5205479,26.2240387 11.2306849,25.2271503 L14.1186693,27.3182481 C13.4503327,28.2564125 12.8026614,29.2267804 12.1932681,30.2025945" id="Fill-65"></path>
                <path d="M30.1010489,8.02092661 C31.1538082,7.41000685 32.2392094,6.82418689 33.3264892,6.27956849 L34.9078591,9.49044912 C33.8853933,10.0026272 32.8645714,10.5536389 31.8742779,11.128093 L30.1010489,8.02092661 Z" id="Fill-67"></path>
                <path d="M23.9939883,12.0831405 C24.9654951,11.3474321 25.972227,10.632798 26.9862387,9.95794481 L28.944047,12.9505045 C27.9899178,13.5851033 27.0428337,14.2578254 26.1288611,14.9497276 L23.9939883,12.0831405 Z" id="Fill-69"></path>
                <path d="M18.4193425,16.8642744 C19.2950372,16.0158536 20.2085401,15.1825875 21.1347241,14.388155 L23.4386771,17.1188243 C22.5669746,17.866609 21.7070137,18.6506227 20.8829824,19.4493174 L18.4193425,16.8642744 Z" id="Fill-71"></path>
                <path d="M16.21409,24.5582168 L13.4580822,22.2935515 C14.2252838,21.3440211 15.032407,20.4051464 15.8571429,19.5027374 L18.4717808,21.9319722 C17.6956556,22.7811033 16.9362035,23.6645691 16.21409,24.5582168" id="Fill-73"></path>
                <path d="M36.6504658,4.74147143 C37.7685088,4.26504873 38.9159061,3.81798806 40.060955,3.41165538 L41.2407593,6.79349883 C40.1642818,7.17544207 39.085456,7.59598219 38.0341057,8.04351644 L36.6504658,4.74147143 Z" id="Fill-75"></path>
                <path d="M50.7047202,0.716954599 C51.904955,0.529416438 53.1277339,0.376686497 54.338771,0.263027006 L54.6684775,3.8326454 C53.5290646,3.93920117 52.3788493,4.08316986 51.2500039,4.25981566 L50.7047202,0.716954599 Z" id="Fill-77"></path>
                <path d="M43.5519217,2.29367221 C44.7213933,1.95885029 45.9164618,1.6562319 47.1044853,1.39457828 L47.8634677,4.89671135 C46.7465988,5.14297358 45.6224501,5.4273591 44.5229589,5.74229061 L43.5519217,2.29367221 Z" id="Fill-79"></path>
                <path d="M58.1073581,3.61531898 L57.9922896,0.0322035225 C58.6472407,0.0108923679 59.3111155,0 59.9663014,0 C60.5277886,0 61.0953816,0.00781409002 61.6533464,0.0234422701 L61.5549511,3.60679452 C60.417182,3.57530137 59.2526419,3.57790607 58.1073581,3.61531898" id="Fill-81"></path>
                <path d="M64.9951703,3.80794814 L65.307499,0.236909002 C66.5199452,0.344885519 67.7434286,0.491695695 68.9436634,0.673550881 L68.4155225,4.21877984 C67.2866771,4.04734344 66.1355225,3.90929452 64.9951703,3.80794814" id="Fill-83"></path>
                <path d="M71.8044305,4.83917123 L72.5469746,1.33324951 C73.7368767,1.58945695 74.933589,1.88615558 76.104,2.21529452 L75.1491663,5.66841194 C74.0487358,5.35916341 72.9236477,5.08022407 71.8044305,4.83917123" id="Fill-85"></path>
                <path d="M113.592423,42.7641705 L116.971679,41.6493603 C116.592423,40.481509 116.17254,39.3108162 115.723303,38.1697223 L112.419194,39.4924346 C112.84119,40.5650961 113.23571,41.6659356 113.592423,42.7641705" id="Fill-87"></path>
                <path d="M115.551828,70.2160395 L119.055076,70.8262489 C119.261965,69.6190904 119.434333,68.3892 119.567953,67.170202 L116.034176,66.7768928 C115.90854,67.9236697 115.746035,69.0806286 115.551828,70.2160395" id="Fill-89"></path>
                <path d="M108.406826,89.6328693 L111.45755,91.4736795 C112.081268,90.4225659 112.681033,89.3385386 113.239703,88.2519065 L110.083303,86.6021863 C109.557511,87.6244114 108.99344,88.6440317 108.406826,89.6328693" id="Fill-91"></path>
                <path d="M111.571585,83.47539 L114.822622,84.9266796 C115.313659,83.8080808 115.776986,82.6591728 116.199922,81.5112119 L112.866928,80.2630886 C112.469119,81.342617 112.033503,82.4233294 111.571585,83.47539" id="Fill-93"></path>
                <path d="M113.965785,76.9717229 L117.368524,78.0107601 C117.720775,76.8376994 118.041323,75.6376446 118.321714,74.44422 L114.861675,73.6187679 C114.598427,74.7406818 114.2969,75.8687523 113.965785,76.9717229" id="Fill-95"></path>
                <path d="M104.518309,95.3604552 L107.324571,97.5614239 C108.070873,96.5936607 108.797213,95.5910892 109.482928,94.5809405 L106.548916,92.5559072 C105.904063,93.5061479 105.220697,94.4495217 104.518309,95.3604552" id="Fill-97"></path>
                <path d="M116.232939,56.3660859 L119.779397,56.111536 C119.692978,54.8887493 119.568282,53.6529391 119.40836,52.4386769 L115.884211,52.9098902 C116.03427,54.0524049 116.151687,55.2152836 116.232939,56.3660859" id="Fill-99"></path>
                <path d="M116.377174,60.4657601 C116.377174,61.4126857 116.353456,62.3709773 116.307663,63.3138775 L119.858348,63.4900497 C119.907429,62.488899 119.932556,61.471173 119.932556,60.4657601 C119.932556,60.2434137 119.931147,60.0210673 119.928798,59.7991945 L116.373652,59.8380282 C116.375765,60.0471143 116.377174,60.2564372 116.377174,60.4657601" id="Fill-101"></path>
                <path d="M115.326622,49.4827487 L118.815781,48.7943984 C118.582356,47.5900814 118.30854,46.3786607 118.002787,45.1935237 L114.562004,46.0961695 C114.84944,47.2105061 115.106818,48.3501793 115.326622,49.4827487" id="Fill-104"></path>
                <path d="M55.9365323,120.795579 C57.1499178,120.877745 58.3811507,120.922972 59.5966497,120.930313 L59.6187241,117.34554 C58.4748493,117.338436 57.3159452,117.295814 56.174184,117.21862 L55.9365323,120.795579 Z" id="Fill-106"></path>
                <path d="M76.5978787,114.834636 L77.6447671,118.260522 C78.8090724,117.898706 79.9773699,117.495688 81.1167828,117.062362 L79.8623014,113.708223 C78.7909902,114.115503 77.6924384,114.494368 76.5978787,114.834636" id="Fill-108"></path>
                <path d="M63.0642035,117.262213 L63.2560626,120.84225 C64.4720313,120.775712 65.6997417,120.671287 66.9046732,120.531107 L66.4972368,116.969777 C65.3636947,117.101432 64.2085479,117.199937 63.0642035,117.262213" id="Fill-110"></path>
                <path d="M69.9058004,116.466975 L70.5276399,119.996576 C71.7236477,119.782517 72.9299883,119.527494 74.1123757,119.23932 L73.2768376,115.754709 C72.1644305,116.025834 71.0304188,116.26523 69.9058004,116.466975" id="Fill-112"></path>
                <path d="M94.8213464,105.19283 L97.0198591,108.009928 C97.9753973,107.252198 98.9201331,106.45445 99.8282348,105.638943 L97.4641644,102.961552 C96.6093699,103.728754 95.7202896,104.479617 94.8213464,105.19283" id="Fill-114"></path>
                <path d="M89.1555147,109.149814 L90.9977847,112.215779 C92.0371585,111.580943 93.0718356,110.904196 94.0726967,110.20519 L92.0484305,107.258331 C91.1067476,107.916135 90.1335969,108.552391 89.1555147,109.149814" id="Fill-116"></path>
                <path d="M99.9672564,100.573093 L102.488196,103.100595 C103.344869,102.231811 104.186748,101.324903 104.990114,100.405208 L102.321464,98.036118 C101.565534,98.9015877 100.773675,99.7552178 99.9672564,100.573093" id="Fill-118"></path>
                <path d="M83.0516712,112.381414 L84.5081096,115.651966 C85.6184031,115.149259 86.7277573,114.604878 87.8056438,114.033976 L86.1526497,110.860271 C85.1391076,111.396839 84.0955068,111.90878 83.0516712,112.381414" id="Fill-120"></path>
            </g>
        </g>
    </g>
</svg>