<?xml version="1.0" encoding="UTF-8"?>
<svg width="110px" height="59px" viewBox="0 0 110 59" version="1.1" xmlns="http://www.w3.org/2000/svg" xmlns:xlink="http://www.w3.org/1999/xlink">
    <!-- Generator: Sketch 47.1 (45422) - http://www.bohemiancoding.com/sketch -->
    <title>機票背景@1x</title>
    <desc>Created with Sketch.</desc>
    <defs>
        <rect id="path-1" x="0" y="0" width="110" height="59"></rect>
    </defs>
    <g id="Symbols" stroke="none" stroke-width="1" fill="none" fill-rule="evenodd">
        <g id="機票背景">
            <mask id="mask-2" fill="white">
                <use xlink:href="#path-1"></use>
            </mask>
            <g id="Mask"></g>
            <g opacity="0.15" mask="url(#mask-2)" id="Combined-Shape" fill-rule="nonzero" fill="#FFFFFF">
                <path d="M103.312336,16.5642607 C107.298031,18.6143462 110,22.5176107 110,26.9926224 L110,68.0409966 C110,74.6353189 104.142266,80 96.9409081,80 L13.3027213,80 C6.1013633,80 0.243629378,74.6353189 0.243629378,68.0409966 L0.243629378,27.9263907 L0.157336938,27.4346369 C-0.925886995,21.2243851 3.69989543,15.190529 10.4682684,13.9855012 L87.7984778,0.212290001 C88.5908454,0.0712761116 89.3964108,0 90.191824,0 C96.1185919,0 101.102234,3.90531558 102.042314,9.2869184 L103.312336,16.5642607 Z M88.5366276,3.24758016 L19.2260742,15.1420898 L98.4901082,14.0325934 L97.3967624,7.98054228 C96.8862562,5.15489325 93.867036,3.10222225 90.218377,3.10222225 C89.6605759,3.10222225 89.0944287,3.15180696 88.5366276,3.24758016 Z M10.7638191,18 C6.47598021,18 3,21.5907781 3,26.0202273 L3,68.9797727 C3,73.4092219 6.47598021,77 10.7638191,77 L98.2361809,77 C102.52402,77 106,73.4092219 106,68.9797727 L106,26.0202273 C106,21.5907781 102.52402,18 98.2361809,18 L10.7638191,18 Z M30,69 L34,69 L34,72.525968 L30,72.525968 L30,69 Z M30,23 L34,23 L34,26.525968 L30,26.525968 L30,23 Z M30,38.3333333 L34,38.3333333 L34,41.8593014 L30,41.8593014 L30,38.3333333 Z M30,53.6666667 L34,53.6666667 L34,57.1926347 L30,57.1926347 L30,53.6666667 Z M30,30.6666667 L34,30.6666667 L34,34.1926347 L30,34.1926347 L30,30.6666667 Z M30,46 L34,46 L34,49.525968 L30,49.525968 L30,46 Z M30,61.3333333 L34,61.3333333 L34,64.8593014 L30,64.8593014 L30,61.3333333 Z"></path>
            </g>
        </g>
    </g>
</svg>